<?xml version="1.0" encoding="UTF-8" standalone="no"?>
<!-- Created with Inkscape (http://www.inkscape.org/) -->

<svg
   xmlns:dc="http://purl.org/dc/elements/1.1/"
   xmlns:cc="http://creativecommons.org/ns#"
   xmlns:rdf="http://www.w3.org/1999/02/22-rdf-syntax-ns#"
   xmlns:svg="http://www.w3.org/2000/svg"
   xmlns="http://www.w3.org/2000/svg"
   xmlns:sodipodi="http://sodipodi.sourceforge.net/DTD/sodipodi-0.dtd"
   xmlns:inkscape="http://www.inkscape.org/namespaces/inkscape"
   width="1080"
   height="250"
   viewBox="0 0 1080 250"
   id="svg2"
   version="1.1"
   inkscape:version="0.92.5 (2060ec1f9f, 2020-04-08)"
   sodipodi:docname="repository3.svg"
   inkscape:export-filename="/home/leonel/Proyects/ReactJs/repository-reactjs/logo/repository3.png"
   inkscape:export-xdpi="96"
   inkscape:export-ydpi="96">
  <defs
     id="defs4" />
  <sodipodi:namedview
     id="base"
     pagecolor="#ffffff"
     bordercolor="#666666"
     borderopacity="1.0"
     inkscape:pageopacity="1"
     inkscape:pageshadow="2"
     inkscape:zoom="0.7"
     inkscape:cx="608.22653"
     inkscape:cy="199.78336"
     inkscape:document-units="px"
     inkscape:current-layer="layer1"
     showgrid="false"
     showguides="false"
     inkscape:window-width="1600"
     inkscape:window-height="822"
     inkscape:window-x="0"
     inkscape:window-y="22"
     inkscape:window-maximized="1"
     units="px" />
  <metadata
     id="metadata7">
    <rdf:RDF>
      <cc:Work
         rdf:about="">
        <dc:format>image/svg+xml</dc:format>
        <dc:type
           rdf:resource="http://purl.org/dc/dcmitype/StillImage" />
        <dc:title></dc:title>
      </cc:Work>
    </rdf:RDF>
  </metadata>
  <g
     inkscape:label="Capa 1"
     inkscape:groupmode="layer"
     id="layer1"
     transform="translate(0,-802.36216)">
    <g
       id="g4396"
       transform="translate(766,53.142859)">
      <path
         d="m -727.98547,780.47312 0,4.23672 q 18.80689,0 18.70356,18.91023 l 0,104.47127 q 0,18.80689 -18.70356,18.70356 l 0,4.13338 63.96411,0 0,-4.13338 q -18.8069,0 -18.70356,-18.70356 l 0,-49.91061 4.13338,0 q 10.4368,0 16.74021,4.23672 6.82008,4.54672 10.23012,11.78014 l 13.12349,29.45036 q 7.95677,17.67022 7.54343,27.28033 l 51.35729,0 0,-4.13338 q -17.56688,0 -30.79371,-26.76366 l -14.15684,-28.31368 q -6.82008,-13.53683 -19.53023,-14.26017 16.53353,-2.48003 27.07366,-13.02016 10.7468,-10.7468 10.7468,-25.1103 0,-16.1202 -13.33017,-27.48701 -13.53683,-11.3668 -32.24039,-11.3668 l -76.15759,0 z m 45.26055,4.85673 9.71345,0 q 17.36021,0 28.31368,9.81678 10.95346,9.71345 10.95346,24.38696 0,14.57018 -10.95346,24.38697 -10.95347,9.71345 -28.31368,9.71345 l -9.71345,0 0,-68.30416 z"
         style="font-style:normal;font-variant:normal;font-weight:normal;font-stretch:normal;font-size:211.62924194px;line-height:125%;font-family:Chapaza;-inkscape-font-specification:'Chapaza, Normal';text-align:start;letter-spacing:0px;word-spacing:0px;writing-mode:lr-tb;text-anchor:start;fill:#000000;fill-opacity:1;stroke:none;stroke-width:1px;stroke-linecap:butt;stroke-linejoin:miter;stroke-opacity:1"
         id="path4348"
         inkscape:connector-curvature="0" />
      <path
         d="m -489.8828,829.24705 q -9.50678,0.20667 -20.25358,4.65005 -10.54012,4.44339 -18.91023,11.67681 -17.87688,16.32687 -21.90693,37.30379 -4.23672,21.59693 5.3734,35.5471 10.33346,14.36351 31.10371,14.36351 17.98022,0 31.20705,-10.4368 13.02016,-10.54013 22.21694,-30.69037 l -4.44339,0 q -8.88678,18.18689 -21.59693,27.69367 -11.16014,8.68011 -23.97363,6.61341 -17.77355,-3.10003 -15.60352,-32.55039 11.78014,-0.93001 22.52694,-3.61671 11.16014,-2.89337 20.87359,-7.7501 10.23012,-5.06339 16.22353,-12.81349 6.51008,-7.95676 6.71675,-17.56688 0.41334,-10.95346 -8.26677,-16.84354 -8.26677,-5.89007 -21.28693,-5.58006 z m -2.58336,5.89007 q 8.68011,-1.03335 11.16014,9.50678 2.79003,12.09015 -4.96006,25.21364 -6.09675,9.81679 -16.32687,13.84684 -10.23012,4.03004 -23.87029,5.16673 2.27336,-19.01357 12.60682,-35.75377 10.54013,-17.05021 21.39026,-17.98022 z"
         style="font-style:italic;font-variant:normal;font-weight:normal;font-stretch:normal;font-size:medium;line-height:125%;font-family:'Chapaza Italic';-inkscape-font-specification:'Chapaza Italic,  Italic';letter-spacing:0px;word-spacing:0px;fill:#000000;fill-opacity:1;stroke:none;stroke-width:1px;stroke-linecap:butt;stroke-linejoin:miter;stroke-opacity:1"
         id="path4350"
         inkscape:connector-curvature="0" />
      <path
         d="m -411.76185,794.83663 q -4.54672,21.18359 -15.39685,35.8571 -10.85013,14.57018 -24.28363,20.77025 l 1.44668,4.65006 q 20.46025,-8.26677 30.69038,-28.31368 l -30.79371,133.61163 q -4.03005,17.67021 -18.18689,21.28692 l -0.93001,3.61671 q 33.79041,0 51.15062,0 l 0.93001,-3.61671 q -12.71015,-4.03005 -8.6801,-21.28692 l 9.09344,-38.5438 q 9.09345,9.71345 20.87359,10.02345 16.7402,-0.10333 31.93039,-14.67351 15.19018,-14.77685 20.46025,-38.02713 5.27006,-21.39026 -2.06669,-36.58045 -5.89008,-13.33016 -21.8036,-14.15683 l -3.20337,0 q -18.91024,0.82667 -30.07037,22.83694 1.55002,-6.92342 13.02016,-57.45403 l -24.1803,0 z m 10.4368,131.54493 q -15.19019,-0.41334 -9.19678,-29.34702 l 4.75339,-20.77025 q 3.30671,-13.4335 11.67681,-26.76366 8.78344,-12.81349 17.77355,-11.26347 8.47343,1.55001 9.40345,17.36021 0.62,15.60352 -2.89337,29.55369 -4.03005,15.81019 -12.71016,28.83035 -8.57677,12.71016 -18.80689,12.40015 z"
         style="font-style:italic;font-variant:normal;font-weight:normal;font-stretch:normal;font-size:medium;line-height:125%;font-family:'Chapaza Italic';-inkscape-font-specification:'Chapaza Italic,  Italic';letter-spacing:0px;word-spacing:0px;fill:#000000;fill-opacity:1;stroke:none;stroke-width:1px;stroke-linecap:butt;stroke-linejoin:miter;stroke-opacity:1"
         id="path4352"
         inkscape:connector-curvature="0" />
      <path
         d="m -271.95014,829.24705 q -21.90693,0.41333 -38.64714,15.91352 -16.4302,15.50019 -20.77025,38.02713 -3.92672,21.39026 7.02675,35.96044 11.16014,14.46684 31.31038,14.15684 20.46025,-0.41334 37.51046,-15.91353 17.36021,-15.81019 21.39026,-37.82046 4.54672,-22.63027 -5.6834,-36.89045 -9.61012,-13.84683 -32.13706,-13.43349 z m -1.24002,4.85672 q 10.54013,-0.31 13.84684,12.40015 3.41004,13.02016 -0.31,33.79041 -3.72005,20.46025 -13.1235,34.10042 -9.50678,14.0535 -19.1169,14.0535 -9.30011,0 -13.43349,-13.12349 -4.03005,-13.33016 -0.31001,-32.75706 4.03005,-20.25358 12.91683,-34.20375 9.61011,-14.05351 19.53023,-14.26018 z"
         style="font-style:italic;font-variant:normal;font-weight:normal;font-stretch:normal;font-size:medium;line-height:125%;font-family:'Chapaza Italic';-inkscape-font-specification:'Chapaza Italic,  Italic';letter-spacing:0px;word-spacing:0px;fill:#000000;fill-opacity:1;stroke:none;stroke-width:1px;stroke-linecap:butt;stroke-linejoin:miter;stroke-opacity:1"
         id="path4354"
         inkscape:connector-curvature="0" />
      <path
         d="m -172.12891,829.45372 q -15.19019,-0.82668 -26.24699,6.40674 -10.54013,6.82008 -14.26017,18.29022 -5.47673,18.60023 10.02345,29.14036 5.16673,3.10004 11.67681,6.51008 12.19349,5.9934 14.26018,7.23342 5.89007,3.72004 7.23342,7.23342 2.48003,5.58007 0.20667,11.26347 -2.58337,6.92342 -10.33346,10.02345 -8.0601,3.10004 -18.29022,1.34335 -8.99011,-1.75668 -12.50349,-5.47673 -2.79003,-3.10004 -2.79003,-7.23342 0.20667,-3.30671 2.27336,-7.23342 2.79003,-4.34005 3.10004,-7.23342 0.62,-4.65006 -1.55002,-6.82009 -2.17003,-2.48003 -5.78674,-2.6867 -4.34005,0 -7.23342,2.79004 -3.41004,3.41004 -4.13339,9.30011 -0.62,7.7501 2.17003,13.22683 2.89337,5.78674 8.78344,10.43679 9.30011,7.02676 25.73031,6.71675 13.33017,-0.31 20.97693,-5.3734 12.81349,-8.3701 16.84353,-21.08025 5.3734,-17.46355 -7.02675,-27.69367 -3.72004,-3.20338 -17.87688,-10.33346 -12.71016,-6.82009 -16.32687,-10.85013 -3.61671,-5.27007 -1.13668,-12.29682 3.72005,-9.30011 17.87689,-9.92012 7.23342,-0.31001 11.78014,2.48003 2.48003,1.55002 3.41004,5.27006 0.62001,2.17003 0.20667,6.92342 -0.20667,4.34005 0.41334,6.51008 1.55002,5.89007 8.0601,5.6834 5.58006,-0.31 7.02675,-5.47673 1.03334,-4.75339 -0.20667,-9.40345 -1.55002,-5.89007 -6.82008,-10.43679 -7.44009,-6.61342 -19.53024,-7.23342 z"
         style="font-style:italic;font-variant:normal;font-weight:normal;font-stretch:normal;font-size:medium;line-height:125%;font-family:'Chapaza Italic';-inkscape-font-specification:'Chapaza Italic,  Italic';letter-spacing:0px;word-spacing:0px;fill:#000000;fill-opacity:1;stroke:none;stroke-width:1px;stroke-linecap:butt;stroke-linejoin:miter;stroke-opacity:1"
         id="path4356"
         inkscape:connector-curvature="0" />
      <path
         d="m -92.87133,782.95315 q -4.75339,-4.75339 -11.26347,-4.75339 -6.51008,-0.20667 -11.26347,4.75339 -4.75339,4.75339 -4.75339,11.26347 0,6.40674 4.75339,11.16014 4.75339,4.65005 11.26347,4.75339 6.51008,-0.10334 11.26347,-4.75339 4.75339,-4.7534 4.75339,-11.16014 0,-6.51008 -4.75339,-11.26347 z m -32.44706,87.62773 q -2.6867,12.60682 -7.64676,33.89375 -3.30671,13.84683 2.17003,20.66692 5.27006,6.40674 14.36351,7.02675 21.49359,1.55002 24.28362,-32.24039 l -4.96006,0 q -4.65005,24.8003 -11.6768,23.35361 -4.13339,-0.82667 -0.82668,-15.39685 l 11.47014,-50.42728 q 3.10004,-14.15684 -2.17003,-20.66692 -5.27006,-6.51008 -14.36351,-7.02675 -21.39026,-1.55002 -24.28362,32.24039 l 4.96006,0 q 4.65005,-24.90363 11.6768,-23.35362 4.23672,0.82668 0.82668,15.39686 l -3.82338,16.53353 z"
         style="font-style:italic;font-variant:normal;font-weight:normal;font-stretch:normal;font-size:medium;line-height:125%;font-family:'Chapaza Italic';-inkscape-font-specification:'Chapaza Italic,  Italic';letter-spacing:0px;word-spacing:0px;fill:#000000;fill-opacity:1;stroke:none;stroke-width:1px;stroke-linecap:butt;stroke-linejoin:miter;stroke-opacity:1"
         id="path4358"
         inkscape:connector-curvature="0" />
      <path
         d="m -50.297445,795.55997 -8.370102,36.37378 -12.813489,0 -1.136681,4.65005 12.916824,0 -15.603523,69.02751 q -3.100038,13.7435 1.963357,20.35691 5.270064,6.40675 14.260173,6.92342 21.390261,1.55002 24.180295,-31.72372 l -4.960061,0 q -5.270064,24.38696 -12.400151,23.14695 -4.030049,-0.82668 -0.206669,-15.39685 l 16.4302,-72.33422 19.323569,0 1.033346,-4.65005 -19.220234,0 8.163432,-36.37378 -23.560286,0 z"
         style="font-style:italic;font-variant:normal;font-weight:normal;font-stretch:normal;font-size:medium;line-height:125%;font-family:'Chapaza Italic';-inkscape-font-specification:'Chapaza Italic,  Italic';letter-spacing:0px;word-spacing:0px;fill:#000000;fill-opacity:1;stroke:none;stroke-width:1px;stroke-linecap:butt;stroke-linejoin:miter;stroke-opacity:1"
         id="path4360"
         inkscape:connector-curvature="0" />
      <path
         d="m 45.907037,829.24705 q -21.906934,0.41333 -38.647137,15.91352 -16.4302,15.50019 -20.770253,38.02713 -3.926715,21.39026 7.026752,35.96044 11.160136,14.46684 31.310381,14.15684 20.460249,-0.41334 37.510457,-15.91353 17.360211,-15.81019 21.39026,-37.82046 4.546722,-22.63027 -5.683403,-36.89045 -9.610117,-13.84683 -32.137057,-13.43349 z m -1.240015,4.85672 q 10.540128,-0.31 13.846835,12.40015 3.410041,13.02016 -0.310004,33.79041 -3.720045,20.46025 -13.123493,34.10042 -9.506782,14.0535 -19.116899,14.0535 -9.300114,0 -13.433497,-13.12349 -4.030049,-13.33016 -0.310004,-32.75706 4.030049,-20.25358 12.916824,-34.20375 9.610117,-14.05351 19.530238,-14.26018 z"
         style="font-style:italic;font-variant:normal;font-weight:normal;font-stretch:normal;font-size:medium;line-height:125%;font-family:'Chapaza Italic';-inkscape-font-specification:'Chapaza Italic,  Italic';letter-spacing:0px;word-spacing:0px;fill:#000000;fill-opacity:1;stroke:none;stroke-width:1px;stroke-linecap:butt;stroke-linejoin:miter;stroke-opacity:1"
         id="path4362"
         inkscape:connector-curvature="0" />
      <path
         d="m 121.23798,830.38373 q -20.46025,-0.31001 -24.59363,32.34372 l 4.96006,0 q 5.58007,-25.1103 12.60682,-23.45695 3.72005,0.93001 0.20667,15.50019 l -17.360211,76.15759 23.973621,0 12.40015,-53.32065 q 5.99341,-26.24698 11.78015,-33.27373 5.16673,-5.99341 11.57347,-5.99341 4.13339,0 6.92342,3.72005 1.55002,2.06669 3.41004,8.47343 1.86002,5.16673 3.20337,7.23342 2.17003,3.10004 5.78674,3.82338 4.75339,0.31001 7.23342,-2.37669 2.3767,-2.6867 2.06669,-7.95677 -0.31,-6.20007 -3.61671,-10.85013 -4.13338,-5.78673 -11.3668,-8.57677 -6.82008,-2.79003 -14.67351,-1.03334 -13.64017,2.9967 -19.84025,19.7369 0.82668,-20.15024 -14.67351,-20.15024 z"
         style="font-style:italic;font-variant:normal;font-weight:normal;font-stretch:normal;font-size:medium;line-height:125%;font-family:'Chapaza Italic';-inkscape-font-specification:'Chapaza Italic,  Italic';letter-spacing:0px;word-spacing:0px;fill:#000000;fill-opacity:1;stroke:none;stroke-width:1px;stroke-linecap:butt;stroke-linejoin:miter;stroke-opacity:1"
         id="path4364"
         inkscape:connector-curvature="0" />
      <path
         d="m 225.70922,828.2137 q -18.29023,0.82668 -27.28034,34.61709 l 5.58007,0 q 7.7501,-25.21364 16.63687,-24.59363 5.3734,0.31 8.16343,15.70685 l 19.1169,89.9011 q -19.22023,21.39026 -35.03042,27.17699 -3.61671,1.44669 -8.26677,1.03335 -1.55002,-0.20667 -5.89007,-1.75669 -5.16673,-2.17002 -9.50679,-1.55002 -3.3067,0.62001 -4.75339,3.61671 -0.93001,2.58337 -0.31,5.47674 1.03335,3.41004 5.06339,4.96006 3.41005,0.82667 9.19678,0.51667 10.54013,-1.24001 21.08026,-7.44009 27.07366,-15.19018 50.32395,-49.6006 23.76695,-34.51376 28.31367,-64.58412 1.86003,-12.09015 -0.41334,-22.32027 -1.24001,-5.3734 -3.51337,-8.0601 -2.48003,-2.89337 -6.51008,-3.10004 -3.20337,-0.31 -5.3734,2.17003 -1.86002,2.17002 -1.55002,4.85672 0.31001,2.06669 1.55002,4.34006 0.62001,1.03334 3.10004,4.44338 2.79003,3.41004 3.51337,4.85673 2.17003,4.13338 2.3767,8.26677 0.41334,25.73031 -26.24699,64.58412 l -14.57017,-69.33752 q -5.27007,-25.1103 -24.8003,-24.18029 z"
         style="font-style:italic;font-variant:normal;font-weight:normal;font-stretch:normal;font-size:medium;line-height:125%;font-family:'Chapaza Italic';-inkscape-font-specification:'Chapaza Italic,  Italic';letter-spacing:0px;word-spacing:0px;fill:#000000;fill-opacity:1;stroke:none;stroke-width:1px;stroke-linecap:butt;stroke-linejoin:miter;stroke-opacity:1"
         id="path4366"
         inkscape:connector-curvature="0" />
      <path
         inkscape:connector-curvature="0"
         id="rect4148"
         d="m -562.13407,762.5516 -13.75492,13.75493 0,160.80102 -160.801,0 -14.70656,14.70657 0,0.5195 189.78196,0 0,-189.78202 -0.51948,0 z"
         style="fill:#000000;fill-rule:evenodd;stroke:none;stroke-width:1.14199996;stroke-linecap:butt;stroke-linejoin:miter;stroke-miterlimit:4;stroke-dasharray:none;stroke-opacity:1" />
    </g>
  </g>
</svg>
