<?xml version="1.0" encoding="UTF-8" standalone="no"?>
<!-- Created with Inkscape (http://www.inkscape.org/) -->

<svg
   xmlns:dc="http://purl.org/dc/elements/1.1/"
   xmlns:cc="http://creativecommons.org/ns#"
   xmlns:rdf="http://www.w3.org/1999/02/22-rdf-syntax-ns#"
   xmlns:svg="http://www.w3.org/2000/svg"
   xmlns="http://www.w3.org/2000/svg"
   xmlns:sodipodi="http://sodipodi.sourceforge.net/DTD/sodipodi-0.dtd"
   xmlns:inkscape="http://www.inkscape.org/namespaces/inkscape"
   width="200"
   height="200"
   viewBox="0 0 200 199.99999"
   id="svg2"
   version="1.1"
   inkscape:version="0.91 r13725"
   sodipodi:docname="repository2.svg">
  <defs
     id="defs4" />
  <sodipodi:namedview
     id="base"
     pagecolor="#ffffff"
     bordercolor="#666666"
     borderopacity="1.0"
     inkscape:pageopacity="0.0"
     inkscape:pageshadow="2"
     inkscape:zoom="1.4"
     inkscape:cx="97.604868"
     inkscape:cy="95.047155"
     inkscape:document-units="px"
     inkscape:current-layer="layer1"
     showgrid="false"
     inkscape:window-width="1366"
     inkscape:window-height="713"
     inkscape:window-x="-8"
     inkscape:window-y="-8"
     inkscape:window-maximized="1"
     units="px" />
  <metadata
     id="metadata7">
    <rdf:RDF>
      <cc:Work
         rdf:about="">
        <dc:format>image/svg+xml</dc:format>
        <dc:type
           rdf:resource="http://purl.org/dc/dcmitype/StillImage" />
        <dc:title></dc:title>
      </cc:Work>
    </rdf:RDF>
  </metadata>
  <g
     inkscape:label="Capa 1"
     inkscape:groupmode="layer"
     id="layer1"
     transform="translate(0,-852.36249)">
    <g
       transform="translate(739.42857,-259.42857)"
       id="g4409">
      <path
         d="m -711.4799,1135.3927 0,4.2368 q 18.80689,0 18.70356,18.9102 l 0,104.4713 q 0,18.8069 -18.70356,18.7035 l 0,4.1334 63.96411,0 0,-4.1334 q -18.8069,0 -18.70356,-18.7035 l 0,-49.9106 4.13338,0 q 10.4368,0 16.74021,4.2367 6.82008,4.5467 10.23012,11.7801 l 13.12349,29.4504 q 7.95677,17.6702 7.54343,27.2803 l 51.35729,0 0,-4.1334 q -17.56688,0 -30.79371,-26.7636 l -14.15684,-28.3137 q -6.82008,-13.5368 -19.53023,-14.2602 16.53353,-2.48 27.07366,-13.0201 10.7468,-10.7468 10.7468,-25.1103 0,-16.1202 -13.33017,-27.4871 -13.53683,-11.3668 -32.24039,-11.3668 l -76.15759,0 z m 45.26055,4.8568 9.71345,0 q 17.36021,0 28.31368,9.8168 10.95346,9.7134 10.95346,24.3869 0,14.5702 -10.95346,24.387 -10.95347,9.7134 -28.31368,9.7134 l -9.71345,0 0,-68.3041 z"
         style="font-style:normal;font-variant:normal;font-weight:normal;font-stretch:normal;font-size:211.62924194px;line-height:125%;font-family:Chapaza;-inkscape-font-specification:'Chapaza, Normal';text-align:start;letter-spacing:0px;word-spacing:0px;writing-mode:lr-tb;text-anchor:start;fill:#000000;fill-opacity:1;stroke:none;stroke-width:1px;stroke-linecap:butt;stroke-linejoin:miter;stroke-opacity:1"
         id="path4348-9"
         inkscape:connector-curvature="0" />
      <path
         inkscape:connector-curvature="0"
         id="rect4148-3"
         d="m -545.6285,1117.4712 -13.75492,13.755 0,160.801 -160.801,0 -14.70656,14.7065 0,0.5195 189.78196,0 0,-189.782 -0.51948,0 z"
         style="fill:#000000;fill-rule:evenodd;stroke:none;stroke-width:1.14199996;stroke-linecap:butt;stroke-linejoin:miter;stroke-miterlimit:4;stroke-dasharray:none;stroke-opacity:1" />
    </g>
  </g>
</svg>
