<?xml version="1.0" standalone="no"?>
<!DOCTYPE svg PUBLIC "-//W3C//DTD SVG 20010904//EN"
 "http://www.w3.org/TR/2001/REC-SVG-20010904/DTD/svg10.dtd">
<svg version="1.0" xmlns="http://www.w3.org/2000/svg"
 width="260.000000pt" height="260.000000pt" viewBox="0 0 260.000000 260.000000"
 preserveAspectRatio="xMidYMid meet">
<metadata>
Created by potrace 1.11, written by Peter Selinger 2001-2013
</metadata>
<g transform="translate(0.000000,260.000000) scale(0.100000,-0.100000)"
fill="#000000" stroke="none">
<path d="M2142 2147 l-62 -63 0 -777 0 -777 -778 0 -778 0 -69 -70 -69 -70
912 0 912 0 0 910 c0 501 -1 910 -3 910 -1 0 -31 -28 -65 -63z"/>
<path d="M610 2020 c0 -16 7 -20 30 -20 53 0 109 -36 131 -83 18 -40 19 -73
19 -601 0 -537 -1 -561 -20 -601 -22 -46 -59 -71 -118 -81 -32 -5 -42 -11 -42
-25 0 -18 14 -19 310 -19 303 0 310 0 310 20 0 15 -7 20 -28 20 -45 0 -113 41
-134 80 -16 31 -18 63 -18 307 l0 273 54 0 c72 0 133 -23 179 -68 44 -42 62
-75 148 -269 71 -159 105 -254 115 -318 l6 -45 244 0 c234 0 244 1 244 19 0
15 -10 21 -39 26 -55 9 -122 55 -170 115 -22 28 -83 135 -135 238 -126 250
-140 268 -231 303 l-30 12 38 8 c112 25 230 116 277 214 21 42 25 64 25 145 0
83 -4 101 -27 145 -31 58 -104 132 -168 168 -93 53 -130 57 -567 57 -396 0
-403 0 -403 -20z m609 -30 c116 -19 219 -90 269 -184 23 -44 27 -64 27 -136 0
-73 -4 -93 -28 -142 -33 -68 -90 -121 -166 -156 -47 -22 -74 -27 -163 -30
l-108 -4 0 331 0 331 53 0 c28 0 81 -5 116 -10z"/>
</g>
</svg>
