<?xml version="1.0" encoding="UTF-8"?>
<svg width="1080" height="250" version="1.1" viewBox="0 0 1080 250" xmlns="http://www.w3.org/2000/svg">
 <g transform="translate(0 -802.36)">
  <g transform="translate(766 53.143)">
   <g>
    <path d="m-727.99 780.47v4.2367q18.807 0 18.704 18.91v104.47q0 18.807-18.704 18.704v4.1334h63.964v-4.1334q-18.807 0-18.704-18.704v-49.911h4.1334q10.437 0 16.74 4.2367 6.8201 4.5467 10.23 11.78l13.123 29.45q7.9568 17.67 7.5434 27.28h51.357v-4.1334q-17.567 0-30.794-26.764l-14.157-28.314q-6.8201-13.537-19.53-14.26 16.534-2.48 27.074-13.02 10.747-10.747 10.747-25.11 0-16.12-13.33-27.487-13.537-11.367-32.24-11.367h-76.158zm45.261 4.8567h9.7134q17.36 0 28.314 9.8168 10.953 9.7134 10.953 24.387 0 14.57-10.953 24.387-10.953 9.7134-28.314 9.7134h-9.7134v-68.304z"/>
    <path d="m-489.88 829.25q-9.5068 0.20667-20.254 4.65-10.54 4.4434-18.91 11.677-17.877 16.327-21.907 37.304-4.2367 21.597 5.3734 35.547 10.333 14.364 31.104 14.364 17.98 0 31.207-10.437 13.02-10.54 22.217-30.69h-4.4434q-8.8868 18.187-21.597 27.694-11.16 8.6801-23.974 6.6134-17.774-3.1-15.604-32.55 11.78-0.93001 22.527-3.6167 11.16-2.8934 20.874-7.7501 10.23-5.0634 16.224-12.813 6.5101-7.9568 6.7168-17.567 0.41334-10.953-8.2668-16.844-8.2668-5.8901-21.287-5.5801zm-2.5834 5.8901q8.6801-1.0334 11.16 9.5068 2.79 12.09-4.9601 25.214-6.0968 9.8168-16.327 13.847-10.23 4.03-23.87 5.1667 2.2734-19.014 12.607-35.754 10.54-17.05 21.39-17.98z"/>
    <path d="m-411.76 794.84q-4.5467 21.184-15.397 35.857-10.85 14.57-24.284 20.77l1.4467 4.6501q20.46-8.2668 30.69-28.314l-30.794 133.61q-4.03 17.67-18.187 21.287l-0.93001 3.6167q33.79 0 51.151 0l0.93001-3.6167q-12.71-4.03-8.6801-21.287l9.0934-38.544q9.0934 9.7134 20.874 10.023 16.74-0.10333 31.93-14.674 15.19-14.777 20.46-38.027 5.2701-21.39-2.0667-36.58-5.8901-13.33-21.804-14.157h-3.2034q-18.91 0.82667-30.07 22.837 1.55-6.9234 13.02-57.454h-24.18zm10.437 131.54q-15.19-0.41334-9.1968-29.347l4.7534-20.77q3.3067-13.434 11.677-26.764 8.7834-12.813 17.774-11.263 8.4734 1.55 9.4034 17.36 0.62 15.604-2.8934 29.554-4.03 15.81-12.71 28.83-8.5768 12.71-18.807 12.4z"/>
    <path d="m-271.95 829.25q-21.907 0.41333-38.647 15.914-16.43 15.5-20.77 38.027-3.9267 21.39 7.0268 35.96 11.16 14.467 31.31 14.157 20.46-0.41334 37.51-15.914 17.36-15.81 21.39-37.82 4.5467-22.63-5.6834-36.89-9.6101-13.847-32.137-13.433zm-1.24 4.8567q10.54-0.31 13.847 12.4 3.41 13.02-0.31 33.79-3.72 20.46-13.124 34.1-9.5068 14.054-19.117 14.054-9.3001 0-13.433-13.123-4.03-13.33-0.31001-32.757 4.03-20.254 12.917-34.204 9.6101-14.054 19.53-14.26z"/>
    <path d="m-172.13 829.45q-15.19-0.82668-26.247 6.4067-10.54 6.8201-14.26 18.29-5.4767 18.6 10.023 29.14 5.1667 3.1 11.677 6.5101 12.193 5.9934 14.26 7.2334 5.8901 3.72 7.2334 7.2334 2.48 5.5801 0.20667 11.263-2.5834 6.9234-10.333 10.023-8.0601 3.1-18.29 1.3434-8.9901-1.7567-12.503-5.4767-2.79-3.1-2.79-7.2334 0.20667-3.3067 2.2734-7.2334 2.79-4.34 3.1-7.2334 0.62-4.6501-1.55-6.8201-2.17-2.48-5.7867-2.6867-4.34 0-7.2334 2.79-3.41 3.41-4.1334 9.3001-0.62 7.7501 2.17 13.227 2.8934 5.7867 8.7834 10.437 9.3001 7.0268 25.73 6.7168 13.33-0.31 20.977-5.3734 12.813-8.3701 16.844-21.08 5.3734-17.464-7.0268-27.694-3.72-3.2034-17.877-10.333-12.71-6.8201-16.327-10.85-3.6167-5.2701-1.1367-12.297 3.72-9.3001 17.877-9.9201 7.2334-0.31001 11.78 2.48 2.48 1.55 3.41 5.2701 0.62001 2.17 0.20667 6.9234-0.20667 4.34 0.41334 6.5101 1.55 5.8901 8.0601 5.6834 5.5801-0.31 7.0268-5.4767 1.0333-4.7534-0.20667-9.4034-1.55-5.8901-6.8201-10.437-7.4401-6.6134-19.53-7.2334z"/>
    <path d="m-92.871 782.95q-4.7534-4.7534-11.263-4.7534-6.5101-0.20667-11.263 4.7534-4.7534 4.7534-4.7534 11.263 0 6.4067 4.7534 11.16 4.7534 4.65 11.263 4.7534 6.5101-0.10334 11.263-4.7534 4.7534-4.7534 4.7534-11.16 0-6.5101-4.7534-11.263zm-32.447 87.628q-2.6867 12.607-7.6468 33.894-3.3067 13.847 2.17 20.667 5.2701 6.4067 14.364 7.0268 21.494 1.55 24.284-32.24h-4.9601q-4.65 24.8-11.677 23.354-4.1334-0.82667-0.82668-15.397l11.47-50.427q3.1-14.157-2.17-20.667-5.2701-6.5101-14.364-7.0268-21.39-1.55-24.284 32.24h4.9601q4.65-24.904 11.677-23.354 4.2367 0.82668 0.82668 15.397l-3.8234 16.534z"/>
    <path d="m-50.297 795.56-8.3701 36.374h-12.813l-1.1367 4.65h12.917l-15.604 69.028q-3.1 13.744 1.9634 20.357 5.2701 6.4068 14.26 6.9234 21.39 1.55 24.18-31.724h-4.9601q-5.2701 24.387-12.4 23.147-4.03-0.82668-0.20667-15.397l16.43-72.334h19.324l1.0333-4.65h-19.22l8.1634-36.374h-23.56z"/>
    <path d="m45.907 829.25q-21.907 0.41333-38.647 15.914-16.43 15.5-20.77 38.027-3.9267 21.39 7.0268 35.96 11.16 14.467 31.31 14.157 20.46-0.41334 37.51-15.914 17.36-15.81 21.39-37.82 4.5467-22.63-5.6834-36.89-9.6101-13.847-32.137-13.433zm-1.24 4.8567q10.54-0.31 13.847 12.4 3.41 13.02-0.31 33.79-3.72 20.46-13.123 34.1-9.5068 14.054-19.117 14.054-9.3001 0-13.433-13.123-4.03-13.33-0.31-32.757 4.03-20.254 12.917-34.204 9.6101-14.054 19.53-14.26z"/>
    <path d="m121.24 830.38q-20.46-0.31001-24.594 32.344h4.9601q5.5801-25.11 12.607-23.457 3.72 0.93001 0.20667 15.5l-17.36 76.158h23.974l12.4-53.321q5.9934-26.247 11.78-33.274 5.1667-5.9934 11.573-5.9934 4.1334 0 6.9234 3.72 1.55 2.0667 3.41 8.4734 1.86 5.1667 3.2034 7.2334 2.17 3.1 5.7867 3.8234 4.7534 0.31001 7.2334-2.3767 2.3767-2.6867 2.0667-7.9568-0.31-6.2001-3.6167-10.85-4.1334-5.7867-11.367-8.5768-6.8201-2.79-14.674-1.0333-13.64 2.9967-19.84 19.737 0.82668-20.15-14.674-20.15z"/>
    <path d="m225.71 828.21q-18.29 0.82668-27.28 34.617h5.5801q7.7501-25.214 16.637-24.594 5.3734 0.31 8.1634 15.707l19.117 89.901q-19.22 21.39-35.03 27.177-3.6167 1.4467-8.2668 1.0334-1.55-0.20667-5.8901-1.7567-5.1667-2.17-9.5068-1.55-3.3067 0.62001-4.7534 3.6167-0.93001 2.5834-0.31 5.4767 1.0334 3.41 5.0634 4.9601 3.41 0.82667 9.1968 0.51667 10.54-1.24 21.08-7.4401 27.074-15.19 50.324-49.601 23.767-34.514 28.314-64.584 1.86-12.09-0.41334-22.32-1.24-5.3734-3.5134-8.0601-2.48-2.8934-6.5101-3.1-3.2034-0.31-5.3734 2.17-1.86 2.17-1.55 4.8567 0.31001 2.0667 1.55 4.3401 0.62001 1.0333 3.1 4.4434 2.79 3.41 3.5134 4.8567 2.17 4.1334 2.3767 8.2668 0.41334 25.73-26.247 64.584l-14.57-69.338q-5.2701-25.11-24.8-24.18z"/>
   </g>
   <path d="m-562.13 762.55-13.755 13.755v160.8h-160.8l-14.707 14.707v0.5195h189.78v-189.78h-0.51948z" fill-rule="evenodd"/>
  </g>
 </g>
</svg>
